<svg width="54" height="78" viewBox="0 0 54 78" fill="none" xmlns="http://www.w3.org/2000/svg">
<path d="M47.7295 0.243164L42.8877 31.6201H53.1855L53.1523 31.8604L46.7549 76.9541L46.7285 77.1357H5.85449L5.89258 76.8926L7.84375 64.3965L7.85938 64.3008L7.94141 64.25L18.3721 57.7939H8.78809L8.81934 57.5557L10.0889 47.9062H0L0.0371094 47.6641L7.19336 0.179688L7.2207 0H47.7676L47.7295 0.243164ZM22.5029 10.9766C20.3774 10.6778 15.2241 11.3591 11.3555 16.3809L11.3496 16.3887C10.8678 17.0758 10.1866 18.3172 9.69043 19.8262C9.19636 21.3288 8.88179 23.1115 9.14258 24.8857C9.1467 26.3746 10.1648 29.7858 14.1338 31.9072C15.4539 32.6605 19.0682 33.6809 23.207 31.916L23.208 31.915C24.5667 31.3262 27.6983 29.4488 29.3779 26.6143L29.377 26.6133C29.8926 25.7995 30.9837 23.6819 31.249 21.6445C31.3792 20.6445 31.3832 20.1554 31.3457 19.9111C31.3284 19.7987 31.2958 19.6853 31.2119 19.6152C31.1619 19.5735 31.1016 19.5545 31.043 19.5566C31.0376 19.5568 31.0323 19.559 31.0273 19.5596H20.9902L20.9639 19.7402L20.3135 24.3037L20.2793 24.5439H23.7441C22.9937 25.3466 21.8518 26.2119 20.5537 26.5469C19.8144 26.7376 19.0267 26.7558 18.2285 26.4961C17.434 26.2376 16.6151 25.6988 15.8154 24.7539C15.2139 23.7327 14.6421 20.9865 17.416 18.291L17.4248 18.2812C17.5757 18.1149 17.9773 17.8201 18.6748 17.5449C19.3668 17.272 20.3393 17.0231 21.6201 16.9375L21.7881 16.9258L21.8145 16.7598L22.6816 11.2178L22.7148 11.0068L22.5029 10.9766ZM31.1455 19.9521H31.1445L31.1426 19.9541C31.1414 19.9548 31.1399 19.9554 31.1387 19.9561L31.1445 19.9512C31.145 19.9522 31.1455 19.9521 31.1455 19.9521Z" fill="#FEE642"/>
</svg>
